<?xml version="1.0" encoding="utf-8"?>
<!-- Generator: Adobe Illustrator 25.2.1, SVG Export Plug-In . SVG Version: 6.00 Build 0)  -->
<svg version="1.1" id="Warstwa_1" xmlns="http://www.w3.org/2000/svg" xmlns:xlink="http://www.w3.org/1999/xlink" x="0px" y="0px"
	 viewBox="0 0 518.7 133.2" style="enable-background:new 0 0 518.7 133.2;" xml:space="preserve">
<style type="text/css">
	.st0{fill:#008D36;}
	.st1{fill:#95C11F;}
	.st2{fill:#FFD500;}
</style>
<path class="st0" d="M145.8,50.3V9h26.9v41.3c0,18.6-14.5,33.1-35.6,33.1c-21.2,0-35.6-14.5-35.6-33.1V9h26.9v41.3
	c0,5.2,4.1,9.3,8.8,9.3C141.6,59.6,145.8,55.5,145.8,50.3z"/>
<path class="st0" d="M186.1,9h26.9v72.3h-26.9V9z"/>
<path class="st0" d="M225.9,33.8V9h59.4v24.8l-25.8,22.7h26.9v24.8h-62V56.5l25.8-22.7H225.9z"/>
<path class="st0" d="M380.4,9h23.8v72.3h-26.9V46.7l-15,18.6l-15-18.6v34.6h-26.9V9h23.8l18.1,22.7L380.4,9z"/>
<path class="st0" d="M479.1,59.6v21.7h-60.4V9H478v21.7h-32.5v4.7h24.3V55h-24.3v4.6H479.1z"/>
<g>
	<path class="st1" d="M48.3,126.3c-9.9,0-17.1-7.2-17.1-15.6S38.4,95,48.3,95c9.9,0,17.2,7.2,17.2,15.6S58.3,126.3,48.3,126.3z
		 M48.3,107.6c-1.5,0-2.7,1.2-2.7,3s1.2,3,2.7,3c1.5,0,2.7-1.2,2.7-3S49.8,107.6,48.3,107.6z"/>
	<path class="st1" d="M84.2,99.5c0,0,2.4-4.2,7.8-4.2c5.7,0,10.2,4.5,10.2,12v18.1H88.4v-14.4c0-1.5-0.9-2.4-2.1-2.4
		c-0.9,0-2.1,1.2-2.1,3v13.8H70.3V95.9h13.8V99.5z"/>
	<path class="st1" d="M121.8,113.3c0,0,0.9,2.1,4.8,2.1c2.7,0,5.1-1.5,5.1-1.5l4.8,9c0,0-4.8,3.3-12.3,3.3
		c-9.9,0-17.1-7.2-17.1-15.6c0-8.7,6.9-15.6,16.5-15.6s16.5,6.9,16.5,15c0,2.1-0.6,3.3-0.6,3.3H121.8z M120.6,107.3h6
		c-0.3-1.8-1.5-3-3-3S120.9,105.5,120.6,107.3z"/>
	<path class="st1" d="M192.5,110.9c0-1.5-0.9-2.4-1.8-2.4c-0.9,0-1.8,0.9-1.8,3v13.8h-13.8v-14.4c0-1.5-0.9-2.4-1.8-2.4
		c-0.9,0-1.8,0.9-1.8,3v13.8h-13.8V95.9h13.8v3.6c0,0,2.4-4.2,7.5-4.2c5.7,0,8.1,4.8,8.1,4.8s3.3-4.8,9.3-4.8c5.7,0,9.9,4.2,9.9,12
		v18.1h-13.8V110.9z"/>
	<path class="st1" d="M228.4,126.3c-9.9,0-17.1-7.2-17.1-15.6S218.4,95,228.4,95c9.9,0,17.2,7.2,17.2,15.6S238.3,126.3,228.4,126.3z
		 M228.4,107.6c-1.5,0-2.7,1.2-2.7,3s1.2,3,2.7,3c1.5,0,2.7-1.2,2.7-3S229.9,107.6,228.4,107.6z"/>
	<path class="st1" d="M272.6,109.7c0,0-1.2-0.6-3-0.6c-3.3,0-5.4,2.1-5.4,6v10.2h-13.8V95.9h13.8v3.6c0,0,2.4-4.2,7.8-4.2h0.6V109.7
		z"/>
	<path class="st1" d="M290.4,113.3c0,0,0.9,2.1,4.8,2.1c2.7,0,5.1-1.5,5.1-1.5l4.8,9c0,0-4.8,3.3-12.3,3.3
		c-9.9,0-17.1-7.2-17.1-15.6c0-8.7,6.9-15.6,16.5-15.6c9.6,0,16.5,6.9,16.5,15c0,2.1-0.6,3.3-0.6,3.3H290.4z M289.2,107.3h6
		c-0.3-1.8-1.5-3-3-3C290.7,104.3,289.5,105.5,289.2,107.3z"/>
	<path class="st1" d="M347.9,107.3h-6v3c0,1.8,1.2,3,3,3c1.8,0,3-0.6,3-0.6v12c0,0-3,1.2-7.2,1.2c-7.8,0-12.6-4.8-12.6-13.2v-5.4
		h-3.6V95.9h1.2c2.4,0,4.2-1.8,4.2-4.2v-3.6h12v7.8h6V107.3z"/>
	<path class="st1" d="M362,80.2c4.5,0,7.5,3,7.5,6.6c0,3.6-3,6.6-7.5,6.6c-4.5,0-7.5-3-7.5-6.6C354.5,83.3,357.5,80.2,362,80.2z
		 M355.1,95.9h13.8v29.5h-13.8V95.9z"/>
	<path class="st1" d="M410.5,110.9c0-1.5-0.9-2.4-1.8-2.4c-0.9,0-1.8,0.9-1.8,3v13.8H393v-14.4c0-1.5-0.9-2.4-1.8-2.4
		c-0.9,0-1.8,0.9-1.8,3v13.8h-13.8V95.9h13.8v3.6c0,0,2.4-4.2,7.5-4.2c5.7,0,8.1,4.8,8.1,4.8s3.3-4.8,9.3-4.8c5.7,0,9.9,4.2,9.9,12
		v18.1h-13.8V110.9z"/>
	<path class="st1" d="M443.9,113.3c0,0,0.9,2.1,4.8,2.1c2.7,0,5.1-1.5,5.1-1.5l4.8,9c0,0-4.8,3.3-12.3,3.3
		c-9.9,0-17.1-7.2-17.1-15.6c0-8.7,6.9-15.6,16.5-15.6c9.6,0,16.5,6.9,16.5,15c0,2.1-0.6,3.3-0.6,3.3H443.9z M442.7,107.3h6
		c-0.3-1.8-1.5-3-3-3C444.2,104.3,443,105.5,442.7,107.3z"/>
</g>
<rect x="-725" y="-54" style="fill:none;" width="130" height="419.4"/>
<text transform="matrix(1 0 0 1 -725.034 -45.6453)"><tspan x="0" y="0" style="font-family:'TTNorms-Heavy'; font-size:12px;">QUIZ ME</tspan><tspan x="0" y="14.4" style="font-family:'KaushanScript-Regular'; font-size:12px;">baby</tspan><tspan x="0" y="28.8" style="font-family:'TTNorms-Heavy'; font-size:12px;">one more time</tspan></text>
<g>
	<path class="st2" d="M395.1,99.8c1.9-1.3,3.9-3,5.7-5.1c1.9-2.1,3.6-4.3,5.1-6.7c1.5-2.4,2.8-4.9,3.9-7.5c1.1-2.6,1.8-5.1,2.2-7.4
		c0-0.5-0.3-0.8-0.8-1c-0.6,0-1.4,0.5-2.4,1.6c-1,1-2.2,2.4-3.4,4c-1.3,1.6-2.5,3.4-3.8,5.4s-2.5,4-3.5,5.9c-1.1,2-2,3.8-2.7,5.5
		c-0.7,1.7-1.2,3.1-1.2,4.2c-0.4,0-0.8-0.4-1.1-1.3c-0.1-0.2-0.2-0.4-0.4-0.7c-0.2-0.2-0.6-0.5-1-0.9c-0.2-0.2-0.4-0.4-0.6-0.6
		c-0.2-0.2-0.4-0.4-0.4-0.6c-0.2-0.3-0.3-0.9-0.3-1.7c0-2.5,0.3-5.3,1-8.5c0.6-3.1,1.5-6.3,2.5-9.6c1-3.3,2.3-6.5,3.7-9.6
		c1.4-3.2,2.9-6.1,4.4-8.7c1.5-2.6,3-4.9,4.6-6.7c1.5-1.8,3-3,4.3-3.6c0.4,0.1,0.9,0.3,1.5,0.6c0.6,0.3,1.2,0.6,1.8,1
		c0.6,0.4,1.2,0.8,1.7,1.1c0.5,0.4,0.9,0.7,1.2,1c-4.7,3.8-8.7,8.6-12.1,14.5c-3.4,5.9-6.2,12.9-8.4,21c1.2-2.2,2.5-4.3,4-6.4
		c1.5-2.1,3-3.9,4.4-5.4c1.5-1.6,2.9-2.8,4.2-3.8c1.3-0.9,2.5-1.4,3.3-1.4c0.7,0.2,1.3,0.5,2,0.9c0.6,0.4,1.2,0.9,1.7,1.6
		c0.5,0.6,0.9,1.3,1.3,2c0.3,0.7,0.5,1.4,0.6,2.2c0,1.8-0.3,3.7-0.9,5.7c-0.6,2-1.3,4-2.3,5.9c-1,1.9-2,3.8-3.2,5.6
		c-1.2,1.8-2.5,3.3-3.8,4.7c-1.3,1.3-2.7,2.4-4,3.2c-1.3,0.8-2.6,1.2-3.8,1.2c-0.5,0-1-0.1-1.6-0.2c-0.5-0.1-1-0.3-1.5-0.4
		c-0.4-0.2-0.8-0.4-1.1-0.6C395.3,100.3,395.1,100,395.1,99.8z"/>
	<path class="st2" d="M441.3,73.7c0.4,0,0.9,0.1,1.5,0.2c0.6,0.2,1.1,0.3,1.6,0.6c0.5,0.2,0.9,0.5,1.2,0.7s0.5,0.5,0.5,0.7
		c-0.8,1.8-1.6,3.6-2.4,5.4c-0.7,1.8-1.3,3.5-1.8,5.2c-0.5,1.7-0.9,3.2-1.2,4.6c-0.3,1.4-0.4,2.7-0.4,3.8c0,1.2,0.1,2.2,0.4,3
		c0.3,0.8,0.7,1.3,1.3,1.7c-0.5,0.3-1.2,0.6-2,0.8c-0.8,0.2-1.5,0.3-2.2,0.3c-2.3,0-3.4-1.6-3.4-4.7c0-2.4,0.8-5.7,2.4-9.9
		c-0.8,1.9-1.8,3.8-2.9,5.5c-1.1,1.7-2.2,3.2-3.4,4.5c-1.1,1.3-2.3,2.4-3.5,3.2c-1.2,0.8-2.2,1.3-3.2,1.5c-1.6,0-2.8-0.7-3.8-2.1
		c-1-1.4-1.5-3.2-1.5-5.5c0-2.4,0.5-4.9,1.5-7.5c1-2.6,2.3-5.1,3.9-7.3c1.6-2.3,3.3-4.1,5.2-5.7s3.7-2.3,5.4-2.3
		c0.4,0.1,0.9,0.4,1.4,0.8c0.5,0.4,1,0.8,1.5,1.3c0.5,0.5,0.9,1,1.2,1.6c0.3,0.5,0.5,1,0.6,1.4c-1.7,0.3-3.4,1.1-5.2,2.5
		c-1.8,1.4-3.4,3.1-4.9,5c-1.5,2-2.7,4.1-3.6,6.3c-0.9,2.2-1.4,4.3-1.4,6.3c0,0.8,0.3,1.3,0.9,1.5c1.2-0.3,2.7-1.3,4.3-3.1
		c1.6-1.8,3.6-4.7,5.9-8.6c0.4-0.8,0.9-1.6,1.4-2.5c0.5-0.9,1.1-1.9,1.6-2.9c0.6-1,1.1-2,1.6-3.1C440.3,75.7,440.8,74.7,441.3,73.7z
		"/>
	<path class="st2" d="M454.5,99.8c1.9-1.3,3.9-3,5.7-5.1c1.9-2.1,3.6-4.3,5.1-6.7c1.5-2.4,2.8-4.9,3.9-7.5c1.1-2.6,1.8-5.1,2.2-7.4
		c0-0.5-0.3-0.8-0.8-1c-0.6,0-1.4,0.5-2.4,1.6c-1,1-2.2,2.4-3.4,4c-1.3,1.6-2.5,3.4-3.8,5.4c-1.3,2-2.5,4-3.5,5.9
		c-1.1,2-2,3.8-2.7,5.5c-0.7,1.7-1.2,3.1-1.2,4.2c-0.4,0-0.8-0.4-1.1-1.3c-0.1-0.2-0.2-0.4-0.4-0.7c-0.2-0.2-0.6-0.5-1-0.9
		c-0.2-0.2-0.4-0.4-0.6-0.6c-0.2-0.2-0.4-0.4-0.4-0.6c-0.2-0.3-0.3-0.9-0.3-1.7c0-2.5,0.3-5.3,1-8.5c0.6-3.1,1.5-6.3,2.5-9.6
		c1-3.3,2.3-6.5,3.7-9.6c1.4-3.2,2.9-6.1,4.4-8.7c1.5-2.6,3-4.9,4.6-6.7c1.5-1.8,3-3,4.3-3.6c0.4,0.1,0.9,0.3,1.5,0.6
		c0.6,0.3,1.2,0.6,1.8,1c0.6,0.4,1.2,0.8,1.7,1.1c0.5,0.4,0.9,0.7,1.2,1c-4.7,3.8-8.7,8.6-12.1,14.5c-3.4,5.9-6.2,12.9-8.4,21
		c1.2-2.2,2.5-4.3,4-6.4c1.5-2.1,3-3.9,4.4-5.4c1.5-1.6,2.9-2.8,4.2-3.8c1.3-0.9,2.5-1.4,3.3-1.4c0.7,0.2,1.3,0.5,2,0.9
		c0.6,0.4,1.2,0.9,1.7,1.6c0.5,0.6,0.9,1.3,1.3,2c0.3,0.7,0.5,1.4,0.6,2.2c0,1.8-0.3,3.7-0.9,5.7s-1.3,4-2.3,5.9
		c-1,1.9-2,3.8-3.2,5.6s-2.5,3.3-3.8,4.7c-1.3,1.3-2.7,2.4-4,3.2c-1.3,0.8-2.6,1.2-3.8,1.2c-0.5,0-1-0.1-1.6-0.2
		c-0.5-0.1-1-0.3-1.5-0.4c-0.4-0.2-0.8-0.4-1.1-0.6C454.7,100.3,454.5,100,454.5,99.8z"/>
	<path class="st2" d="M502.6,89.5c-1,3.1-1.9,5.9-2.9,8.5c-1,2.5-2,4.9-3.1,7c-1.1,2.1-2.3,4.1-3.6,5.9c-1.3,1.8-2.7,3.5-4.2,5.1
		c-1.9,2-4,3.6-6,4.7c-2.1,1.1-4.2,1.6-6.2,1.6c-1.1,0-2.1-0.1-3.1-0.3c-1-0.2-2-0.6-2.9-1c-0.9-0.4-1.7-0.9-2.4-1.4
		c-0.7-0.5-1.2-1.1-1.5-1.7c0-0.5,0.3-1,0.9-1.3c0.5,0.5,0.9,0.8,1.3,1.1c0.3,0.3,0.7,0.5,1,0.6c0.3,0.2,0.7,0.3,1,0.3
		c0.4,0,0.8,0.1,1.2,0.1c2.4,0,4.8-0.7,7.1-2.1c2.3-1.4,4.5-3.4,6.6-6c2.1-2.6,3.9-5.8,5.6-9.5c1.7-3.7,3.1-7.9,4.3-12.4
		c-0.6,0.8-1.2,1.9-2,3.1c-0.8,1.2-1.7,2.4-2.7,3.6c-1,1.2-2,2.3-3,3.3c-1,1-2,1.6-3,2c-0.7,0-1.4-0.1-2.1-0.4
		c-0.7-0.2-1.4-0.6-2.1-1c-0.7-0.4-1.2-0.9-1.8-1.5s-0.8-1.3-1-2c0-1.2,0-2.2,0.1-3c0.1-0.7,0.2-1.6,0.4-2.4
		c0.4-1.6,0.9-3.4,1.7-5.5c0.7-2,1.6-4,2.6-6c1-2,2.1-3.8,3.3-5.5c1.2-1.7,2.5-3.1,3.8-4c0.3,0,0.8,0,1.3,0.1c0.5,0.1,1,0.2,1.6,0.3
		c0.6,0.2,1.1,0.4,1.6,0.6c0.5,0.2,1,0.5,1.3,0.9c-0.5,0.4-1.5,1.8-3.1,4.3c-1.6,2.4-3.3,5.9-5.2,10.4c-0.2,0.5-0.5,1.1-0.8,2
		c-0.3,0.9-0.6,1.8-0.9,2.8c-0.3,1-0.5,1.9-0.7,2.9c-0.2,0.9-0.3,1.7-0.3,2.2c0,0.3,0.1,0.6,0.2,0.8c0.1,0.2,0.2,0.3,0.3,0.4
		c0.8-0.1,1.8-0.8,3.1-1.9c1.3-1.1,2.7-2.9,4.3-5.2c1-1.5,2-3,2.8-4.6c0.8-1.5,1.7-3,2.5-4.5c0.8-1.5,1.7-3.1,2.6-4.7
		c0.9-1.6,1.8-3.3,2.9-5c0.5,0,1.1,0.1,1.8,0.2c0.6,0.1,1.3,0.3,1.8,0.5c0.6,0.2,1.1,0.4,1.6,0.6c0.4,0.2,0.8,0.5,1,0.7
		c-1.3,2.8-2.5,5.5-3.7,8.2C504.6,84,503.5,86.7,502.6,89.5z"/>
</g>
<path class="st0" d="M50.7,6.9C74.4,6.9,92,24.5,92,45.2c0,16.5-10.3,26.9-18.6,32c0,0,4.1,4.1,12.4,4.1c2.1,0,5.2-0.5,5.2-0.5v20.7
	c0,0-2.1,0.5-5.2,0.5C62,102,52.2,83.4,52.2,83.4h-1.5c-23.8,0-41.3-17.6-41.3-38.2C9.3,24.5,26.9,6.9,50.7,6.9z M50.7,30.7
	c-7.7,0-14.5,6.7-14.5,14.5s6.7,14.5,14.5,14.5s14.5-6.7,14.5-14.5S58.4,30.7,50.7,30.7z"/>
</svg>
